<?xml version="1.0" standalone="no"?>
<!DOCTYPE svg PUBLIC "-//W3C//DTD SVG 20010904//EN"
 "http://www.w3.org/TR/2001/REC-SVG-20010904/DTD/svg10.dtd">
<svg version="1.0" xmlns="http://www.w3.org/2000/svg"
 width="450.000000pt" height="450.000000pt" viewBox="0 0 450.000000 450.000000"
 preserveAspectRatio="xMidYMid meet">
<metadata>
Created by potrace 1.14, written by Peter Selinger 2001-2017
</metadata>
<g transform="translate(0.000000,450.000000) scale(0.100000,-0.100000)"
fill="#000000" stroke="none">
<path d="M1274 3888 c17 -1702 19 -2118 7 -2118 -6 0 -11 -8 -12 -17 0 -14 -2
-15 -6 -3 -18 51 -115 110 -155 95 -11 -4 -13 2 -10 30 6 50 -5 82 -33 101
-38 25 -48 12 -20 -26 14 -18 25 -41 25 -50 0 -9 -17 -45 -39 -81 -46 -77 -56
-114 -41 -167 12 -45 59 -92 93 -92 19 0 19 2 -9 31 l-29 32 28 -18 c22 -14
40 -17 89 -11 33 3 66 10 72 15 6 5 18 31 26 58 13 41 15 44 18 21 2 -14 -8
-49 -23 -77 -27 -55 -24 -63 12 -29 l23 21 0 -41 c0 -22 -5 -44 -11 -47 -7 -5
-3 -14 11 -27 16 -15 25 -17 33 -9 7 7 92 11 267 12 l255 0 28 59 c16 33 50
84 78 114 27 29 49 59 49 65 0 11 -51 41 -70 41 -6 0 -29 -14 -51 -32 -45 -36
-98 -43 -125 -16 -15 15 -19 14 -52 -9 -25 -16 -47 -23 -70 -21 -33 3 -34 5
-38 48 -3 40 1 49 34 83 20 20 33 37 28 37 -4 0 -36 -16 -70 -35 -99 -55 -122
-44 -66 33 36 50 121 109 170 118 19 4 42 15 51 26 14 18 20 19 60 8 86 -22
170 -93 230 -197 l25 -42 60 39 c32 22 91 52 129 68 54 21 64 28 45 30 -67 7
-226 46 -294 72 -167 62 -301 207 -367 395 -52 151 -51 373 3 509 18 48 18 50
1 59 -39 21 -96 96 -136 175 -35 72 -41 93 -45 165 -5 101 9 158 52 205 32 34
38 36 105 40 67 4 71 3 82 -21 7 -16 25 -29 53 -37 44 -13 200 -73 253 -97 31
-14 34 -14 80 18 26 18 77 53 113 77 60 42 217 122 266 136 18 6 33 -8 92 -86
214 -282 351 -588 417 -930 l12 -66 -24 -7 c-59 -14 -51 -94 12 -121 19 -8 35
-20 35 -27 0 -7 -16 -28 -35 -47 -55 -53 -40 -94 19 -55 23 15 23 15 30 -34
12 -89 36 -544 36 -676 -1 -151 -7 -152 -60 -6 -24 65 -30 96 -26 126 l6 40
-26 -29 c-21 -24 -25 -37 -22 -72 2 -35 1 -41 -12 -33 -46 27 -80 73 -80 107
0 27 32 93 68 140 32 42 16 41 -36 -4 -72 -61 -90 -127 -56 -201 18 -38 45
-59 98 -77 24 -8 49 -31 80 -74 25 -34 46 -66 46 -71 0 -5 4 -11 9 -13 11 -4
15 -57 12 -168 -2 -83 -2 -85 -19 -60 -34 50 -101 116 -141 138 -23 13 -41 20
-41 15 0 -4 31 -43 70 -86 101 -112 105 -123 115 -289 l5 -86 -51 -12 c-92
-22 -179 7 -244 82 l-36 43 21 -50 c12 -27 28 -58 37 -67 20 -22 89 -54 136
-62 50 -9 138 9 166 35 19 18 23 19 43 4 16 -10 46 -15 99 -15 62 0 81 4 103
21 27 21 34 57 15 76 -7 7 -3 20 13 44 13 19 32 55 42 79 11 25 36 83 57 130
42 94 64 174 74 268 l7 62 489 0 489 0 0 1505 0 1505 -1616 0 -1617 0 7 -612z
m2131 -63 c47 -95 51 -210 15 -347 -12 -44 -12 -44 -46 -22 -63 42 -29 -5 99
-139 61 -64 147 -183 147 -205 0 -11 3 -29 7 -39 6 -13 9 -8 13 22 l5 40 34
-90 c28 -73 35 -105 36 -171 1 -69 5 -86 28 -119 l26 -39 -40 -44 c-29 -31
-38 -47 -30 -55 7 -7 22 -3 50 16 40 27 51 26 51 -3 0 -11 -14 -21 -40 -29
-22 -6 -40 -16 -40 -21 0 -6 18 -10 40 -10 33 0 40 -3 40 -20 0 -17 -3 -18
-24 -8 -14 6 -33 7 -43 4 -16 -7 -14 -11 16 -38 l33 -30 -17 -39 c-10 -21 -51
-74 -91 -117 -63 -66 -73 -74 -74 -53 0 22 -3 21 -48 -21 -55 -52 -94 -78
-206 -136 -44 -23 -70 -42 -59 -42 16 0 22 -8 27 -35 4 -20 41 -102 83 -183
l77 -147 3 -115 c2 -63 4 -137 6 -163 1 -40 -2 -52 -20 -67 -12 -10 -19 -20
-16 -24 4 -3 -1 -6 -11 -6 -9 0 -19 -7 -23 -16 -4 -11 -8 -12 -13 -4 -5 8 -12
6 -25 -7 -18 -17 -18 -17 -13 5 8 28 2 28 -27 -3 -16 -18 -25 -22 -28 -13 -4
9 -6 8 -6 -3 -1 -19 -31 -48 -31 -31 0 6 -7 9 -15 6 -8 -4 -15 -1 -15 5 0 6 3
10 8 9 14 -3 42 14 36 23 -3 5 -11 6 -17 2 -7 -4 -16 -8 -22 -8 -5 0 -12 -16
-14 -35 l-4 -35 -7 30 c-7 30 -7 30 -15 -13 -4 -23 -11 -42 -15 -42 -12 0 -30
26 -23 33 3 4 0 7 -8 7 -10 1 -8 5 5 15 11 8 17 15 13 15 -4 0 0 11 9 25 28
44 10 49 -39 11 -27 -20 -47 -31 -46 -24 11 59 -24 906 -41 995 l-7 43 37 -6
c47 -8 97 17 106 52 11 42 -11 52 -44 21 -22 -22 -37 -27 -65 -25 -21 1 -37 5
-37 9 0 4 16 17 36 29 46 29 68 63 60 95 -7 28 -28 32 -66 10 -36 -21 -50 -18
-50 9 0 38 -37 208 -71 324 -37 128 -76 226 -158 390 -33 67 -56 120 -51 117
15 -9 12 12 -5 45 -9 18 -24 30 -35 30 -10 0 -22 5 -26 12 -5 8 -2 9 9 5 19
-7 20 -6 11 17 -3 9 -10 16 -16 16 -5 0 -6 -5 -2 -11 4 -7 1 -10 -6 -7 -16 5
-23 38 -9 38 6 0 8 4 4 9 -6 11 41 8 52 -2 3 -4 2 -7 -4 -7 -5 0 -10 -6 -10
-14 0 -10 7 -12 29 -6 20 6 32 4 43 -6 8 -9 15 -11 15 -5 0 6 7 8 15 5 9 -4
14 -12 13 -19 -2 -8 -1 -13 2 -13 3 1 15 -4 27 -10 16 -9 24 -9 29 0 4 6 3 8
-2 5 -6 -3 -16 4 -24 16 -12 21 -12 21 5 7 20 -16 20 -18 0 33 -6 13 -3 17 13
14 22 -3 55 -27 48 -35 -8 -8 22 -32 39 -32 14 0 12 4 -6 20 l-24 19 23 -4
c12 -2 22 0 22 6 0 5 -14 9 -32 9 -24 0 -29 3 -21 11 20 20 4 39 -23 29 -15
-6 -24 -6 -24 0 0 6 8 10 18 11 14 0 14 2 -3 8 -25 10 -36 5 -28 -14 6 -18
-18 -20 -36 -2 -11 10 -13 9 -7 -1 4 -6 0 -19 -8 -28 -9 -9 -16 -11 -16 -4 0
6 -5 8 -12 4 -7 -4 -8 -3 -4 4 8 13 -30 36 -44 27 -5 -3 -17 -2 -25 2 -12 7
-11 11 6 21 12 8 18 9 15 4 -3 -6 8 -14 26 -17 18 -4 36 -13 40 -19 6 -8 8 -7
8 2 0 7 -13 20 -30 30 -29 18 -29 19 -12 38 10 11 16 26 14 33 -3 8 0 11 6 7
13 -8 43 4 37 14 -9 15 15 22 30 10 8 -7 22 -10 30 -6 9 3 13 2 10 -4 -3 -6 2
-10 12 -11 12 0 6 -6 -14 -15 -18 -8 -33 -17 -33 -20 0 -3 4 -3 9 0 5 3 12 -5
15 -19 7 -26 26 -35 26 -12 1 24 27 48 45 41 17 -7 17 -8 0 -21 -10 -7 -15
-16 -11 -20 4 -4 12 0 17 10 6 9 14 15 20 12 5 -4 5 5 -1 20 -13 34 -13 38 3
28 23 -14 39 -12 33 4 -5 13 -4 14 8 4 8 -7 12 -19 9 -27 -4 -10 0 -12 11 -8
9 3 16 9 16 13 0 4 6 8 13 8 7 0 13 -9 13 -20 -1 -15 7 -20 36 -22 l37 -4 -16
37 c-12 29 -13 44 -4 73 13 43 94 169 140 218 l32 34 35 -34 c19 -18 46 -56
59 -84z m-1225 57 l31 -27 -56 -49 c-68 -58 -115 -121 -115 -151 0 -62 95 -30
246 84 l41 30 32 -33 32 -33 -68 -52 c-148 -111 -253 -144 -321 -101 -63 39
-74 116 -27 196 24 41 148 164 165 164 5 0 24 -12 40 -28z m1014 -16 c-22 -24
-50 -49 -62 -57 -13 -7 -30 -26 -39 -42 -8 -16 -17 -26 -20 -23 -3 3 0 13 8
22 13 16 12 16 -8 6 -12 -7 -37 -27 -57 -44 -19 -18 -40 -34 -45 -35 -33 -8
10 86 62 135 36 35 136 81 176 82 23 0 22 -2 -15 -44z m-109 -163 c-2 -10 -4
-19 -4 -21 -1 -2 -6 0 -11 3 -8 5 -7 11 1 21 15 18 18 18 14 -3z m-332 -73
c16 -19 16 -20 -13 -20 -16 0 -32 5 -36 12 -5 8 0 9 14 6 23 -6 31 7 10 15 -7
3 -8 6 -3 6 6 1 18 -8 28 -19z m-48 -20 c3 -5 18 -10 33 -11 21 0 16 -3 -18
-13 -25 -7 -49 -9 -55 -5 -5 4 -19 9 -30 13 -13 3 -10 4 7 2 16 -2 29 3 32 10
6 16 22 18 31 4z m-22 -77 c-4 -10 -9 -11 -19 -2 -18 15 -18 15 5 15 11 0 17
-5 14 -13z m84 -29 c2 -6 -3 -11 -12 -11 -8 0 -15 7 -15 15 0 15 22 12 27 -4z
m670 -2206 c-3 -8 -6 -5 -6 6 -1 11 2 17 5 13 3 -3 4 -12 1 -19z m-20 -50 c-3
-7 -5 -2 -5 12 0 14 2 19 5 13 2 -7 2 -19 0 -25z m-156 -21 c-6 -8 -7 -18 -3
-22 4 -5 1 -5 -5 -1 -7 4 -13 2 -13 -3 0 -6 -4 -11 -9 -11 -5 0 -4 11 2 25 7
14 18 25 26 25 10 0 11 -3 2 -13z m-16 -57 c-3 -5 -3 -10 2 -10 4 0 9 -14 10
-30 1 -17 -2 -28 -6 -25 -5 3 -7 -4 -4 -15 3 -11 0 -20 -6 -20 -7 0 -10 18 -7
53 4 59 4 57 12 57 3 0 2 -4 -1 -10z m-15 -24 c0 -3 -4 -8 -10 -11 -5 -3 -10
-1 -10 4 0 6 5 11 10 11 6 0 10 -2 10 -4z m-17 -76 c-4 -30 -2 -36 15 -37 12
-1 20 4 18 10 -1 7 -1 8 2 4 2 -4 11 0 19 10 13 17 13 17 4 -3 -6 -12 -7 -25
-3 -29 4 -5 2 -5 -5 -1 -6 3 -14 2 -18 -3 -3 -6 -12 -8 -19 -5 -10 4 -13 -4
-11 -30 3 -28 0 -34 -13 -29 -10 4 -13 2 -8 -5 5 -8 2 -10 -8 -6 -9 3 -16 10
-16 16 0 5 5 6 10 3 6 -3 10 -3 11 2 0 7 3 22 9 48 4 19 0 36 -8 31 -4 -2 -14
0 -22 6 -12 8 -11 9 4 4 14 -5 17 -2 12 9 -3 9 -2 13 4 10 6 -3 10 -1 10 4 0
6 -4 11 -10 11 -5 0 -10 4 -10 8 0 4 8 8 19 8 15 0 18 -6 14 -36z m-56 8 c-3
-8 -6 -5 -6 6 -1 11 2 17 5 13 3 -3 4 -12 1 -19z m-17 2 c0 -5 -5 -10 -11 -10
-5 0 -7 5 -4 10 3 6 8 10 11 10 2 0 4 -4 4 -10z m153 -35 c-3 -9 -8 -14 -10
-11 -3 3 -2 9 2 15 9 16 15 13 8 -4z m-46 -107 c-3 -8 -6 -5 -6 6 -1 11 2 17
5 13 3 -3 4 -12 1 -19z m-93 -44 c3 -8 2 -12 -4 -9 -6 3 -10 10 -10 16 0 14 7
11 14 -7z"/>
<path d="M2837 3634 c3 -8 -1 -14 -11 -14 -9 0 -15 -3 -15 -7 1 -5 1 -16 0
-27 -1 -14 -4 -16 -14 -7 -8 6 -17 8 -20 4 -13 -13 -7 -20 16 -17 12 1 26 3
31 3 4 1 5 8 2 16 -3 9 1 18 8 21 21 8 27 31 11 38 -9 3 -12 0 -8 -10z"/>
<path d="M3046 3571 c-4 -6 -12 -9 -17 -6 -5 4 -6 -2 -2 -11 4 -12 8 -14 11
-6 3 10 7 10 18 1 16 -13 18 -2 5 20 -6 9 -11 10 -15 2z"/>
<path d="M2984 3545 c8 -8 18 -15 22 -15 3 0 1 7 -6 15 -7 8 -17 15 -22 15 -5
0 -3 -7 6 -15z"/>
<path d="M3150 3536 c0 -2 8 -10 18 -17 15 -13 16 -12 3 4 -13 16 -21 21 -21
13z"/>
<path d="M3060 3491 c0 -6 4 -13 10 -16 6 -3 7 1 4 9 -7 18 -14 21 -14 7z"/>
<path d="M3148 3483 c-6 -22 7 -52 17 -41 4 4 3 19 -2 35 -9 25 -10 26 -15 6z"/>
<path d="M3200 3486 c0 -2 7 -9 15 -16 13 -11 14 -10 9 4 -5 14 -24 23 -24 12z"/>
<path d="M2920 3406 c0 -2 7 -7 16 -10 8 -3 12 -2 9 4 -6 10 -25 14 -25 6z"/>
<path d="M3328 2890 c-97 -52 -111 -159 -28 -233 56 -51 111 -64 169 -40 63
26 103 80 109 146 4 46 1 57 -23 85 -15 18 -40 39 -56 47 -40 21 -126 18 -171
-5z m106 -51 c24 -5 41 -32 33 -53 -9 -22 -56 -21 -64 2 -4 9 -16 24 -27 33
-18 14 -18 19 -7 33 12 14 16 15 30 2 9 -8 25 -16 35 -17z"/>
<path d="M3184 1252 c-6 -4 -8 -16 -4 -27 6 -17 7 -16 12 8 3 15 5 27 4 27 0
0 -6 -4 -12 -8z"/>
<path d="M1516 3455 c-28 -42 -39 -131 -26 -197 18 -96 51 -158 139 -266 29
-37 36 -41 44 -27 6 12 4 22 -9 36 -10 11 -12 19 -5 19 8 0 6 8 -4 24 -18 27
-23 110 -8 128 6 8 7 22 2 33 -4 11 -8 23 -8 27 -1 11 126 -10 173 -28 9 -3
16 -1 16 5 0 5 -18 16 -39 22 -22 7 -43 19 -46 27 -4 11 -2 12 7 5 7 -6 30
-16 51 -23 21 -6 47 -21 57 -32 l19 -21 7 27 c3 14 3 37 0 50 -7 28 -80 102
-126 130 l-32 18 12 -22 c18 -34 6 -34 -41 2 -53 40 -137 88 -154 88 -7 0 -20
-11 -29 -25z"/>
<path d="M1672 3175 c0 -38 5 -53 28 -78 l28 -32 7 28 c6 23 2 34 -21 59 -24
25 -25 29 -7 19 12 -6 29 -18 37 -27 17 -16 36 -11 36 10 0 20 -43 55 -76 62
-31 6 -31 6 -32 -41z"/>
<path d="M1780 3185 c7 -8 17 -12 22 -9 6 4 5 10 -3 15 -22 14 -33 10 -19 -6z"/>
<path d="M1655 3105 c8 -39 33 -77 45 -70 17 10 10 29 -22 65 l-30 35 7 -30z"/>
<path d="M2682 2689 c-9 -12 -27 -33 -38 -48 l-22 -26 -55 23 c-66 28 -101 26
-105 -4 -3 -21 25 -40 86 -59 28 -8 28 -11 -8 -64 -33 -48 -34 -64 -4 -70 12
-2 32 12 59 43 l40 47 56 -26 c59 -27 89 -25 89 5 0 23 -20 43 -59 60 -37 15
-38 20 -6 50 27 25 32 59 13 78 -17 17 -26 15 -46 -9z"/>
<path d="M2090 2241 c0 -14 25 -31 58 -37 25 -5 33 -3 38 11 4 10 1 21 -7 26
-18 11 -89 12 -89 0z"/>
<path d="M2146 2155 c4 -8 7 -15 9 -15 1 0 8 7 15 15 10 13 9 15 -8 15 -15 0
-20 -5 -16 -15z"/>
<path d="M2180 2110 c0 -5 5 -10 10 -10 6 0 10 5 10 10 0 6 -4 10 -10 10 -5 0
-10 -4 -10 -10z"/>
<path d="M1102 2003 c4 -22 43 -25 43 -3 0 8 -11 16 -23 18 -19 3 -23 0 -20
-15z"/>
<path d="M2331 1911 l10 -29 47 20 c73 31 72 38 0 38 l-67 0 10 -29z"/>
<path d="M940 1841 c0 -26 17 -36 35 -21 18 15 8 40 -16 40 -12 0 -19 -7 -19
-19z"/>
<path d="M1234 1845 c-4 -9 -2 -21 4 -27 15 -15 44 -1 40 19 -4 23 -36 29 -44
8z"/>
<path d="M925 1650 c-4 -7 -3 -16 3 -22 14 -14 45 -2 40 15 -6 16 -34 21 -43
7z"/>
<path d="M1246 1455 c4 -10 0 -15 -15 -15 -12 0 -30 -9 -41 -20 -11 -11 -31
-22 -45 -26 -14 -3 -25 -12 -25 -19 0 -6 -26 -36 -58 -66 -288 -270 -384 -362
-432 -409 -30 -31 -138 -134 -240 -230 -370 -351 -390 -371 -390 -404 0 -29 2
-27 87 55 49 46 149 141 223 210 177 164 391 364 624 582 104 98 190 176 192
174 10 -10 -28 -100 -70 -164 -77 -120 -92 -183 -57 -251 31 -61 58 -70 201
-68 141 2 160 9 191 68 35 69 21 129 -61 257 -62 97 -72 129 -64 206 5 44 12
65 28 78 l21 19 -28 -5 c-23 -4 -25 -2 -15 10 9 11 9 16 -3 24 -21 13 -29 11
-23 -6z m-7 -82 c-6 -16 -10 -57 -10 -91 0 -54 -2 -62 -14 -52 -8 6 -23 9 -35
5 -18 -6 -20 -2 -20 41 0 42 5 53 37 86 44 45 56 48 42 11z"/>
<path d="M1177 1334 c-14 -14 -7 -35 11 -32 9 2 17 10 17 17 0 16 -18 25 -28
15z"/>
<path d="M2482 1102 c-9 -6 1 -14 35 -27 26 -9 63 -26 82 -37 36 -20 51 -17
35 9 -28 45 -119 77 -152 55z"/>
</g>
</svg>
