<?xml version="1.0" standalone="no"?>
<!DOCTYPE svg PUBLIC "-//W3C//DTD SVG 20010904//EN"
 "http://www.w3.org/TR/2001/REC-SVG-20010904/DTD/svg10.dtd">
<svg version="1.0" xmlns="http://www.w3.org/2000/svg"
 width="260.000000pt" height="260.000000pt" viewBox="0 0 260.000000 260.000000"
 preserveAspectRatio="xMidYMid meet">
<metadata>
Created by potrace 1.14, written by Peter Selinger 2001-2017
</metadata>
<g transform="translate(0.000000,260.000000) scale(0.100000,-0.100000)"
fill="#000000" stroke="none">
<path d="M0 1300 l0 -1300 248 0 247 0 25 47 c13 25 46 70 72 99 27 28 48 57
48 63 0 11 -51 41 -70 41 -6 0 -29 -14 -51 -32 -45 -36 -98 -43 -125 -16 -15
15 -19 14 -52 -9 -25 -16 -47 -23 -70 -21 -33 3 -34 5 -38 48 -3 40 1 49 34
83 20 20 33 37 28 37 -4 0 -36 -16 -70 -35 -99 -55 -122 -44 -66 33 36 50 121
109 170 118 19 4 42 15 51 26 14 18 20 19 60 8 86 -22 170 -93 230 -197 l25
-42 60 39 c32 22 91 52 129 68 54 21 64 28 45 30 -67 7 -226 46 -294 72 -167
62 -301 207 -367 395 -52 151 -51 373 3 509 18 48 18 50 1 59 -39 21 -96 96
-136 175 -35 72 -41 93 -45 165 -5 101 9 158 52 205 32 34 38 36 105 40 67 4
71 3 82 -21 7 -16 25 -29 53 -37 44 -13 200 -73 253 -97 31 -14 34 -14 80 18
26 18 77 53 113 77 60 42 217 122 266 136 18 6 33 -8 92 -86 214 -282 351
-588 417 -930 l12 -66 -24 -7 c-59 -14 -51 -94 12 -121 19 -8 35 -20 35 -27 0
-7 -16 -28 -35 -47 -55 -53 -40 -94 19 -55 23 15 23 15 30 -34 9 -71 36 -532
36 -628 0 -80 1 -83 23 -83 l24 0 -4 178 c-4 213 -22 521 -32 579 l-8 43 37
-6 c47 -8 97 17 106 52 11 42 -11 52 -44 21 -22 -22 -37 -27 -65 -25 -21 1
-37 5 -37 9 0 4 16 17 36 29 46 29 68 63 60 95 -7 28 -28 32 -66 10 -36 -21
-50 -18 -50 9 0 38 -37 208 -71 324 -37 128 -76 226 -158 390 -33 67 -56 120
-51 117 15 -9 12 12 -5 45 -9 18 -24 30 -35 30 -10 0 -22 5 -26 12 -5 8 -2 9
10 5 14 -6 17 -3 12 9 -3 8 -6 18 -6 20 0 2 -5 4 -11 4 -5 0 -7 -5 -3 -11 4
-7 1 -10 -6 -7 -16 5 -23 38 -9 38 6 0 8 4 4 9 -6 11 41 8 52 -2 3 -4 2 -7 -4
-7 -5 0 -10 -6 -10 -14 0 -10 7 -12 29 -6 20 6 32 4 43 -6 8 -9 15 -11 15 -5
0 6 7 8 15 5 9 -4 14 -12 13 -18 -2 -6 2 -13 7 -15 6 -2 18 -7 27 -12 11 -6
19 -5 24 3 4 6 3 8 -2 5 -6 -3 -16 4 -24 16 -12 21 -12 21 5 7 20 -16 20 -17
-1 35 -9 21 13 19 26 -2 11 -16 11 -16 5 1 -6 19 -5 19 15 1 11 -10 18 -20 16
-23 -8 -8 22 -32 39 -32 14 0 12 4 -6 20 l-24 19 23 -4 c12 -2 22 0 22 6 0 5
-14 9 -32 9 -24 0 -29 3 -21 11 20 20 4 39 -23 29 -15 -6 -24 -6 -24 0 0 6 8
10 18 11 14 0 14 2 -3 8 -25 10 -36 5 -28 -14 6 -18 -18 -20 -36 -2 -11 10
-13 9 -7 -1 4 -6 0 -19 -8 -28 -9 -9 -16 -11 -16 -4 0 6 -5 8 -12 4 -7 -4 -8
-3 -4 4 8 13 -30 36 -44 27 -5 -3 -17 -2 -25 2 -12 7 -11 11 6 21 12 8 18 9
15 4 -3 -6 8 -14 26 -17 18 -4 36 -13 40 -19 6 -8 8 -7 8 2 0 7 -13 20 -30 30
-29 18 -29 19 -12 38 10 11 16 26 14 33 -3 8 0 11 6 7 13 -8 43 4 37 14 -9 15
15 22 30 10 8 -7 22 -10 30 -6 9 3 13 2 10 -4 -3 -6 2 -10 12 -11 12 0 6 -6
-14 -15 -18 -8 -33 -17 -33 -20 0 -3 4 -3 9 0 5 3 12 -5 15 -19 7 -26 26 -35
26 -12 1 24 27 48 45 41 17 -7 17 -8 0 -21 -10 -7 -15 -16 -11 -20 4 -4 12 0
17 10 6 9 14 15 20 12 5 -4 5 5 -1 20 -13 34 -13 38 3 28 23 -14 39 -12 33 4
-5 13 -4 14 8 4 8 -7 12 -19 9 -27 -4 -10 0 -12 11 -8 9 3 16 9 16 13 0 4 6 8
13 8 7 0 13 -9 13 -20 -1 -15 7 -20 36 -22 l37 -4 -16 37 c-12 29 -13 44 -4
73 13 43 94 169 140 218 l32 34 35 -34 c74 -71 116 -223 94 -338 -14 -72 -30
-131 -36 -131 -2 0 -16 7 -30 16 -63 42 -29 -5 99 -139 61 -64 147 -183 147
-205 0 -11 3 -29 7 -39 6 -13 9 -8 13 22 l5 40 34 -90 c28 -73 35 -105 36
-171 1 -69 5 -86 28 -119 l26 -39 -40 -44 c-29 -31 -38 -47 -30 -55 7 -7 22
-3 50 16 40 27 51 26 51 -3 0 -11 -14 -21 -40 -29 -51 -15 -51 -31 0 -31 33 0
40 -3 40 -20 0 -17 -3 -18 -24 -8 -14 6 -33 7 -43 4 -16 -7 -14 -11 16 -38
l33 -30 -17 -39 c-10 -21 -51 -74 -91 -117 -63 -66 -73 -74 -74 -53 0 22 -3
21 -48 -21 -55 -52 -94 -78 -206 -136 -44 -23 -70 -42 -59 -42 16 0 22 -8 27
-35 4 -20 41 -102 84 -183 l76 -147 0 -92 -1 -93 243 0 244 0 0 1300 0 1300
-1300 0 -1300 0 0 -1300z m820 1062 l31 -27 -56 -49 c-68 -58 -115 -121 -115
-151 0 -62 95 -30 246 84 l41 30 32 -33 32 -33 -68 -52 c-148 -111 -253 -144
-321 -101 -63 39 -74 116 -27 196 24 41 148 164 165 164 5 0 24 -12 40 -28z
m1014 -16 c-22 -24 -50 -49 -62 -57 -13 -7 -30 -26 -39 -42 -8 -16 -17 -26
-20 -23 -3 3 0 13 8 22 13 16 12 16 -8 6 -12 -7 -37 -27 -57 -44 -19 -18 -40
-34 -45 -35 -33 -8 10 86 62 135 36 35 136 81 176 82 23 0 22 -2 -15 -44z
m-109 -163 c-2 -10 -4 -19 -4 -21 -1 -2 -6 0 -11 3 -8 5 -7 11 1 21 15 18 18
18 14 -3z m-332 -73 c16 -19 16 -20 -13 -20 -16 0 -32 5 -36 12 -5 8 0 9 14 6
23 -6 31 7 10 15 -7 3 -8 6 -3 6 6 1 18 -8 28 -19z m-48 -20 c3 -5 18 -10 33
-11 21 0 16 -3 -18 -13 -25 -7 -49 -9 -55 -5 -5 4 -19 9 -30 13 -13 3 -10 4 7
2 16 -2 29 3 32 10 6 16 22 18 31 4z m-22 -77 c-4 -10 -9 -11 -19 -2 -18 15
-18 15 5 15 11 0 17 -5 14 -13z m84 -29 c2 -6 -3 -11 -12 -11 -8 0 -15 7 -15
15 0 15 22 12 27 -4z"/>
<path d="M1477 2114 c3 -8 -1 -14 -11 -14 -9 0 -15 -3 -15 -7 1 -5 1 -16 0
-27 -1 -14 -4 -16 -14 -7 -8 6 -17 8 -20 4 -13 -13 -7 -20 16 -17 12 1 26 3
31 3 4 1 5 8 2 16 -3 9 1 18 8 21 21 8 27 31 11 38 -9 3 -12 0 -8 -10z"/>
<path d="M1686 2051 c-4 -6 -12 -9 -17 -6 -5 4 -6 -2 -2 -11 4 -12 8 -14 11
-6 3 10 7 10 18 1 16 -13 18 -2 5 20 -6 9 -11 10 -15 2z"/>
<path d="M1624 2025 c8 -8 18 -15 22 -15 3 0 1 7 -6 15 -7 8 -17 15 -22 15 -5
0 -3 -7 6 -15z"/>
<path d="M1790 2016 c0 -2 8 -10 18 -17 15 -13 16 -12 3 4 -13 16 -21 21 -21
13z"/>
<path d="M1700 1971 c0 -6 4 -13 10 -16 6 -3 7 1 4 9 -7 18 -14 21 -14 7z"/>
<path d="M1788 1963 c-6 -22 7 -52 17 -41 4 4 3 19 -2 35 -9 25 -10 26 -15 6z"/>
<path d="M1840 1966 c0 -2 7 -9 15 -16 13 -11 14 -10 9 4 -5 14 -24 23 -24 12z"/>
<path d="M156 1935 c-28 -42 -39 -131 -26 -197 18 -96 51 -158 139 -266 29
-37 36 -41 44 -27 6 12 4 22 -9 36 -10 11 -12 19 -5 19 8 0 6 8 -4 24 -18 27
-23 110 -8 128 6 8 7 22 2 33 -4 11 -8 23 -8 27 -1 11 126 -10 173 -28 9 -3
16 -1 16 5 0 5 -18 16 -39 22 -22 7 -43 19 -46 27 -4 11 -2 12 7 5 7 -6 30
-16 51 -23 21 -6 47 -21 57 -32 l19 -21 7 27 c3 14 3 37 0 50 -7 28 -80 102
-126 130 l-32 18 12 -22 c18 -34 6 -34 -41 2 -53 40 -137 88 -154 88 -7 0 -20
-11 -29 -25z"/>
<path d="M1560 1886 c0 -2 7 -7 16 -10 8 -3 12 -2 9 4 -6 10 -25 14 -25 6z"/>
<path d="M312 1655 c0 -38 5 -53 28 -78 l28 -32 7 28 c6 23 2 34 -21 59 -24
25 -25 29 -7 19 12 -6 29 -18 37 -27 17 -16 36 -11 36 10 0 20 -43 55 -76 62
-31 6 -31 6 -32 -41z"/>
<path d="M420 1665 c7 -8 17 -12 22 -9 6 4 5 10 -3 15 -22 14 -33 10 -19 -6z"/>
<path d="M295 1585 c8 -39 33 -77 45 -70 17 10 10 29 -22 65 l-30 35 7 -30z"/>
<path d="M1968 1370 c-97 -52 -111 -159 -28 -233 56 -51 111 -64 169 -40 63
26 103 80 109 146 4 46 1 57 -23 85 -15 18 -40 39 -56 47 -40 21 -126 18 -171
-5z m106 -51 c24 -5 41 -32 33 -53 -9 -22 -56 -21 -64 2 -4 9 -16 24 -27 33
-18 14 -18 19 -7 33 12 14 16 15 30 2 9 -8 25 -16 35 -17z"/>
<path d="M1322 1169 c-9 -12 -27 -33 -38 -48 l-22 -26 -55 23 c-66 28 -101 26
-105 -4 -3 -21 25 -40 86 -59 28 -8 28 -11 -8 -64 -33 -48 -34 -64 -4 -70 12
-2 32 12 59 43 l40 47 56 -26 c59 -27 89 -25 89 5 0 23 -20 43 -59 60 -37 15
-38 20 -6 50 27 25 32 59 13 78 -17 17 -26 15 -46 -9z"/>
<path d="M730 721 c0 -14 25 -31 58 -37 25 -5 33 -3 38 11 4 10 1 21 -7 26
-18 11 -89 12 -89 0z"/>
<path d="M786 635 c4 -8 7 -15 9 -15 1 0 8 7 15 15 10 13 9 15 -8 15 -15 0
-20 -5 -16 -15z"/>
<path d="M820 590 c0 -5 5 -10 10 -10 6 0 10 5 10 10 0 6 -4 10 -10 10 -5 0
-10 -4 -10 -10z"/>
<path d="M971 391 l10 -29 47 20 c73 31 72 38 0 38 l-67 0 10 -29z"/>
<path d="M1498 300 c-55 -48 -72 -86 -66 -144 7 -58 37 -98 90 -120 24 -10 51
-22 60 -27 10 -5 27 -9 37 -9 20 0 20 1 0 58 -14 38 -18 70 -15 97 l6 40 -26
-29 c-21 -24 -25 -37 -22 -72 2 -35 1 -41 -12 -33 -46 27 -80 73 -80 107 0 27
32 93 68 140 33 44 14 40 -40 -8z"/>
</g>
</svg>
